<?xml version="1.0" standalone="no"?>
<svg viewBox="-350 -150 1500 1500" xmlns="http://www.w3.org/2000/svg" style="width: 487.5px; height: 487.5px; justify-content: center; align-self: center; transform: scale(-1, 1);"><g transform="rotate(0 402.96013259887695 618.0049209594727)"><g transform="translate(0 459)"><path d="M733.147 436.112C733.147 428.02 721.947 413.657 721.928 406.328C731.344 404.645 739.216 391.888 737.13 383.899C733.455 381.09 723.822 375.56 719.838 372.978C695.565 373.714 704.79 339.945 702.043 322.78C699.277 305.986 697.223 288.426 693.175 271.537C685.985 258.023 682.611 242.873 675.739 229.427C672.67 224.971 667.71 220.886 666.225 215.709C651.191 199.289 630.495 189.447 613.463 175.54C620.073 173.424 619.632 164.509 619.205 158.784C620.743 151.315 619.1 141.947 612.288 137.739C609.986 130.239 599.924 127.621 594.04 132.399C590.175 115.076 575.054 104.566 559.214 98.1382C559.228 98.0872 559.241 98.0372 559.256 97.9862C543.281 91.6462 524.134 88.4855 508.194 92.0495C516.608 -1.69929 444.805 -5.14063 408.364 2.73778C389.725 6.76756 361.758 19.3134 355.404 36.7544C351.818 46.6009 341.524 78.3569 340.059 88.4855C312.232 72.6065 279.972 51.6682 255.836 83.6362C251.003 89.2072 245.655 93.3452 238.423 95.2592C215.843 101.118 185.873 101.314 173.039 124.332C165.368 138.592 172.267 147.988 170.206 162.253C68.5633 233.632 -16.3777 496.585 2.6943 618.918C7.2823 662.697 29.6823 740.186 84.9713 730.525C113.171 761.369 586.495 761.369 635.302 730.525C675.477 741.033 716.299 724.767 733.147 686.289C754.542 633.527 731.869 576.546 727.851 522.421C725.411 508.756 721.779 497.909 719.838 483.919C719.029 478.09 721.82 468.392 719.838 463.018C720.773 459.52 733.147 444.203 733.147 436.112Z" transform="translate(30.9998 -44.64909)" fill="#FFFFFF" stroke="none"></path><path d="M369.588 6.25729C369.661 6.58229 369.712 6.90329 369.758 7.22429C370.092 8.59429 370.217 9.91129 370.176 11.2343C370.196 11.7113 370.161 12.1893 370.072 12.6623C369.893 14.2193 369.518 15.8173 369.011 17.5643C367.932 21.2813 366.696 24.9533 365.315 28.5703C362.585 35.7233 359.362 42.5483 355.378 49.0903C348.181 60.9073 339.032 70.7163 328.246 79.1953C330.293 80.8843 332.294 82.6413 334.299 84.3663C343.99 92.7063 353.419 101.424 362.552 110.372C378.771 126.265 394.664 142.453 410.184 159.029C417.839 167.204 425.352 175.486 432.824 183.824L433.069 184.105L433.334 184.42C433.685 184.845 434.082 185.346 434.516 185.895C437.366 189.497 441.814 195.119 445.248 194.052C447.246 193.43 449.35 190.449 450.712 189.027L453.221 186.411C454.055 185.537 454.884 184.657 455.698 183.765C470.294 167.773 484.105 151.167 497.073 133.81C503.401 125.341 509.518 116.713 515.413 107.935C518.443 103.422 521.417 98.8693 524.331 94.2783C527.149 89.8383 529.428 85.0663 533.581 81.7523C536.629 79.3203 540.852 81.5503 540.084 85.5373C538.874 91.8163 534.528 97.1263 531.106 102.433C527.669 107.766 524.151 113.047 520.554 118.272C513.631 128.332 506.408 138.18 498.927 147.83C492.485 156.141 485.763 164.238 478.86 172.171L476.973 174.33C469.548 182.795 462.26 191.781 454.055 199.507C446.708 206.426 438.684 204.41 431.991 197.686C423.526 189.185 415.667 179.991 407.522 171.18C391.246 153.572 374.8 136.098 358.184 118.81L352.722 113.12C346.353 106.473 340.01 99.7831 333.833 92.9713L333.036 92.0832C325.991 84.1587 318.828 74.2313 308.813 70.2023C308.089 69.9113 308.355 68.8833 309.137 69.0273C315.548 70.2123 320.9 73.4423 325.88 77.3013C330.356 69.8943 334.35 62.0863 337.832 54.1003L335.598 53.1303C319.614 46.2237 301.599 39.2598 284.438 40.3793C277.522 40.8293 270.143 43.4493 265.368 48.6413C261.044 53.3443 258.885 59.6863 254.917 64.6953C250.372 70.4323 244.444 73.0143 237.169 73.2473L233.631 73.3546C229.563 73.4866 225.661 73.7001 221.534 74.5953C210.352 77.0193 198.563 80.9523 189.185 87.6693C185.783 90.1053 182.271 93.4553 180.626 97.1463C178.995 100.803 178.526 105.082 178.367 109.029C178.338 109.753 178.402 110.564 178.467 111.393C178.574 112.766 178.685 114.185 178.386 115.333C178.44 115.125 178.465 115.237 178.472 115.456C179.971 116.638 180.992 118.603 181.103 120.561C190.451 115.689 200.128 111.419 209.993 107.57C220.977 103.285 232.302 99.8513 243.629 96.5993C254.715 93.4183 266.319 92.1023 277.62 89.8343C279.059 89.5453 279.559 91.4883 278.218 92.0043C266.34 96.5663 254.847 101.974 242.87 106.266C230.899 110.557 219.017 115.201 207.393 120.363C184.925 130.344 163.222 143.044 145.521 160.275C128.233 177.105 114.898 197.55 102.496 218.106C90.006 238.807 78.859 260.262 68.924 282.301C49.27 325.9 34.532 371.741 24.829 418.565C15.386 464.131 10.11 511.324 11.867 557.897C12.701 580.017 15.403 602.154 21.687 623.428C24.689 633.592 28.447 643.523 33.195 653.004C38.202 663 44.948 671.904 49.52 682.07C49.896 682.906 50.04 683.709 50.019 684.455C69.519 701.35 100.041 689.965 121.145 679.878C169.705 656.658 217.365 631.248 262.665 602.088C307.375 573.307 349.745 541.187 391.115 507.848C387.915 504.548 385.094 500.848 382.615 497.498C377.495 490.578 373.645 482.738 370.995 474.557C367.895 464.977 366.934 454.727 367.815 444.718L368.065 441.887C368.908 432.435 369.881 422.844 371.955 413.607C371.974 413.488 372.065 413.437 372.165 413.437C372.264 413.437 372.365 413.498 372.405 413.607C377.995 431.498 378.445 450.727 384.724 468.388C387.254 475.488 391.174 482.348 395.875 488.238C397.905 490.787 400.285 492.998 402.714 495.158C402.875 494.057 403.094 492.968 403.424 491.898L403.686 491.051C404.011 490.023 404.414 488.879 404.974 487.867C404.184 487.638 403.415 487.388 402.655 487.107C402.054 486.888 401.924 485.918 402.655 485.758C404.645 485.298 406.695 485.068 408.785 484.968C409.115 484.918 409.434 484.908 409.754 484.928C412.303 484.849 414.881 484.941 417.411 485.032C418.763 485.08 420.102 485.127 421.415 485.148C427.945 485.248 434.455 485.367 440.974 485.658C444.107 485.794 447.342 486.046 450.624 486.301C460.416 487.064 470.628 487.86 479.825 485.687C490.985 483.048 501.985 475.607 510.934 468.607C518.754 462.488 524.785 455.218 531.274 447.968C530.808 448.042 530.346 448.111 529.885 448.175L525.7 448.748C520.418 449.453 514.147 450.007 509.955 447.468C508.354 446.498 508.815 444.298 510.445 443.697C513.251 442.669 516.5 442.873 519.69 443.074C521.365 443.18 523.024 443.284 524.594 443.208C528.174 443.037 531.795 442.658 535.325 441.918C536.485 441.678 537.634 441.398 538.774 441.068C547.134 438.658 556.955 430.178 550.315 420.918C550.065 420.568 550.344 420.248 550.684 420.187C550.835 420.158 550.995 420.187 551.125 420.298C558.684 426.557 554.754 437.777 547.604 442.588C545.145 444.248 542.365 445.408 539.485 446.258C540.035 447.267 540.134 448.508 539.474 449.687C533.875 459.668 524.395 468.437 515.514 475.488C506.395 482.727 495.875 489.557 484.565 492.758C473.985 495.738 462.56 494.488 451.557 493.283C448.977 493 446.421 492.721 443.905 492.498C436.724 491.867 429.565 491.117 422.395 490.287C420.474 490.068 418.485 489.898 416.464 489.708C418.365 492.208 419.875 495.088 420.865 496.818C424.085 502.437 421.115 509.838 414.875 511.557C414.224 511.738 413.554 511.838 412.895 511.857C411.214 515.227 407.214 517.708 403.514 516.437C401.905 515.888 400.354 515.138 398.865 514.238C375.594 534.678 351.094 553.857 325.895 571.838C279.165 605.178 230.184 635.628 179.395 662.398C167.955 668.428 156.428 674.296 144.803 679.936L134.797 684.759C123.722 690.089 112.387 695.39 100.625 698.697C98.332 699.342 95.931 699.863 93.471 700.262C93.4391 700.483 93.4311 700.693 93.4455 700.895C91.234 701.19 89.3041 701.235 87.6563 701.03L87.281 700.978C72.864 701.986 57.443 698.466 48.168 687.936C46.622 689.021 44.368 689.141 42.379 687.58C32.376 679.731 26.413 667.781 21.18 656.372C15.874 644.799 11.715 632.738 8.65899 620.382C2.55499 595.704 0.133988 570.248 0.00640295 544.863C-0.455012 447.044 24.043 348.366 66.595 260.547C77.387 238.274 89.283 216.417 102.489 195.48C115.659 174.6 130.952 155.195 150.537 139.967C156.169 135.589 162.028 131.586 168.071 127.898C164.015 125.888 162.404 120.775 162.12 116.233C161.49 106.146 162.692 94.5253 168.598 86.0143C176.883 74.0743 191.714 66.7123 205.466 63.1323C212.645 61.2643 220.071 60.1753 227.476 59.8073C229.158 59.7231 230.869 59.798 232.58 59.8728C234.752 59.9678 236.923 60.0628 239.033 59.8323C242.361 59.4703 244.419 57.4843 246.333 54.8733C251.236 48.1803 254.428 41.1603 261.461 36.2543C268.677 31.2213 278.028 29.2953 286.721 29.8173C296.848 30.4263 306.087 34.4163 315.006 39.0013C323.056 43.1393 330.87 47.7233 338.485 52.6133C339.881 49.3423 341.196 46.0463 342.419 42.7393C344.791 36.3273 346.854 29.7113 348.528 23.0833C350.225 16.3623 349.977 7.48629 355.103 2.43229C359.56 -1.96071 368.143 -0.235711 369.588 6.25729ZM510.812 38.7601C510.972 35.4816 511.133 32.1658 510.417 29.1003C510.317 28.6753 509.779 28.6823 509.559 28.9883C507.274 32.1729 506.43 36.4367 505.863 40.4991L505.737 41.4325L505.216 45.4513C504.536 50.9234 504.279 56.4296 504.608 61.9393C504.95 67.6563 505.753 73.3803 507.011 78.9683C508.312 84.7463 509.282 90.8113 514.136 94.5353C517.563 97.1663 521.693 93.4863 521.965 90.0433C522.235 86.6303 520.509 83.1485 518.854 79.8113C518.096 78.2842 517.354 76.7874 516.825 75.3413C515.242 71.0143 513.975 66.5723 513.007 62.0663C523.327 58.9923 534.493 60.7043 544.815 63.9033L546.221 64.3393C557.391 67.8115 570.388 72.1393 576.141 82.9323C579.145 88.5703 582.075 93.0123 587.685 96.3323C592.555 99.2133 598.668 100.768 601.91 105.754C604.503 109.74 604.148 113.539 603.457 117.625L602.976 120.397L602.86 121.107C602.507 123.342 602.412 125.576 602.792 127.597C596.182 123.402 589.424 119.439 582.524 115.686C584.465 113.451 586.24 111.124 587.638 108.684C588.624 106.967 588.669 104.773 587.638 103.058C583.317 95.8593 577.05 103.742 573.433 108.292C572.93 108.924 572.479 109.491 572.091 109.945L570.881 111.35C566.018 116.946 560.863 122.285 555.541 127.446C544.126 138.516 531.976 148.832 520.104 159.403C497.528 179.506 472.676 201.171 460.688 229.668C460.445 230.245 461.316 230.498 461.63 230.064C479.108 205.999 500.115 186.426 523.35 167.993C534.876 158.85 546.485 149.851 557.514 140.101C562.791 135.436 567.954 130.639 572.904 125.626L573.934 124.59C576.364 122.159 578.963 119.633 581.375 116.978C608.714 140.568 639.155 161.088 660.285 190.928C668.674 202.77 675.592 215.601 681.067 229.025C689.644 262.639 696.467 296.664 701.53 330.982C699.444 327.175 694.004 324.506 690.165 323.096L689.524 322.867C684.125 320.988 678.485 320.787 673.115 322.588C670.405 320.857 667.434 319.488 664.315 318.418C665.655 314.748 663.445 309.248 660.705 306.857C655.604 302.432 648.118 302.564 641.424 303.198L640.228 303.316L636.655 303.697C635.054 303.867 633.974 304.857 633.854 306.498C633.785 307.458 633.745 308.398 633.754 309.338C633.774 311.027 633.934 312.687 634.295 314.298C622.823 314.095 611.315 314.596 599.827 315.097C595.472 315.287 591.12 315.477 586.774 315.628C582.235 315.787 577.705 315.947 573.165 316.098C572.705 309.998 567.274 307.008 561.085 305.888C565.625 301.838 569.514 296.318 566.665 290.218C563.684 283.828 555.445 283.258 549.634 285.648C545.464 287.348 542.134 290.548 537.995 292.258C533.815 293.988 529.285 293.498 524.905 292.918L524.097 292.81C523.603 292.743 523.105 292.672 522.605 292.602C516.259 291.706 509.465 290.748 503.815 294.357C496.705 298.898 497.395 308.898 490.285 313.117C486.655 315.277 482.235 315.977 478.294 317.388C474.075 318.888 470.304 321.037 466.815 323.848C459.634 329.628 454.174 337.258 448.014 344.048C440.964 351.787 433.634 359.248 425.934 366.338C408.565 382.328 388.785 395.648 371.875 412.078C371.524 412.418 371.815 412.918 372.205 412.958C372.294 412.958 372.395 412.937 372.495 412.888C386.971 405.016 400.318 394.956 413.247 384.737L415.745 382.758C429.785 371.598 443.415 359.727 455.325 346.287C460.724 340.187 465.684 333.307 472.285 328.408C478.445 323.828 485.895 323.168 492.604 319.838C499.625 316.348 500.844 310.568 504.325 304.227C507.57 298.3 513.467 298.405 519.28 299.168L519.881 299.249L523.495 299.767C531.535 300.857 538.344 300.638 545.384 296.248C546.007 295.86 546.637 295.439 547.277 295.01C550.12 293.107 553.158 291.073 556.634 291.318C564.658 291.878 557.995 299.552 554.639 302.277L554.429 302.444L554.134 302.668C553.134 303.408 552.684 304.398 552.645 305.408C550.735 305.498 548.945 305.738 547.395 306.057C542.395 307.117 538.065 310.138 537.514 315.548C537.365 317.057 537.665 318.848 538.495 320.138C535.604 321.328 532.464 323.078 529.695 325.258C523.545 327.148 517.335 331.798 511.915 334.958C507.964 337.258 503.155 339.638 499.174 342.607C492.745 343.738 486.335 345.178 480.575 347.617C480.035 347.857 480.354 348.658 480.865 348.668C485.325 348.807 489.915 348.318 494.485 347.678C494.535 347.708 494.594 347.727 494.665 347.718C495.625 347.628 496.585 347.458 497.565 347.218C500.705 346.738 503.825 346.238 506.875 345.857C512.335 345.178 517.815 344.537 523.285 343.928C526.854 343.527 530.424 343.138 533.995 342.758C551.485 340.878 569.035 339.658 586.604 338.988C587.44 338.956 588.428 338.882 589.514 338.8C596.765 338.257 608.356 337.388 607.835 346.408C607.429 353.266 600.492 357.326 594.681 359.331L594.094 359.527C579.825 364.208 563.655 364.168 548.825 365.908C540.054 366.947 531.295 368.117 522.625 369.787C513.594 371.537 503.934 373.458 495.705 377.708C493.065 379.068 493.974 382.428 496.155 383.428C496.125 383.488 496.094 383.557 496.075 383.628C495.924 384.068 496.245 384.617 496.695 384.727C496.815 384.758 496.934 384.777 497.054 384.798C491.924 385.888 486.854 387.267 481.895 388.908C481.375 389.078 481.594 389.818 482.125 389.727C494.844 387.408 507.815 386.357 520.745 386.968C527.315 387.277 533.875 387.748 540.384 388.777C546.335 389.718 553.214 390.588 558.445 393.767C559.625 394.477 560.714 395.398 561.615 396.437C561.424 397.517 561.615 398.638 562.365 399.777C562.615 400.168 563.384 400.187 563.474 399.628C563.485 399.557 563.504 399.477 563.524 399.408C564.724 402.227 564.455 405.348 561.455 407.748C558.227 410.33 553.424 410.977 549.346 411.329L548.514 411.398C535.524 412.468 522.395 412.537 509.445 413.998C506.285 414.348 504.844 417.267 505.274 419.668C505.245 419.648 505.205 419.628 505.174 419.598C505.224 419.977 505.365 420.338 505.575 420.678C505.575 420.697 505.585 420.708 505.604 420.727C506.205 422.008 507.474 422.928 509.445 422.838C518.415 422.458 527.405 421.287 536.344 420.468C541.014 420.037 545.825 419.838 550.535 419.187C552.625 418.888 554.695 418.517 556.724 417.988C567.384 415.218 575.695 405.517 569.224 394.818C570.247 394.395 571.277 394.034 572.191 393.728L574.004 393.128C577.585 391.947 581.214 390.998 584.915 390.348C588.115 389.798 591.315 389.468 594.514 389.357C592.285 395.227 592.514 403.037 593.235 408.258C594.295 415.867 598.285 426.807 605.445 430.818C600.785 434.098 597.695 438.958 601.464 444.117C597.565 450.258 598.214 457.918 602.604 463.908C606.745 469.557 613.354 472.318 620.085 473.758C620.115 482.398 621.875 491.418 622.924 499.798C624.235 510.208 625.514 520.617 626.645 531.048C628.825 551.267 630.565 571.508 631.125 591.838C631.614 609.504 630.887 627.079 629.994 644.695L629.604 652.248C629.075 662.508 628.835 672.798 629.174 683.068C629.235 684.718 629.274 686.408 629.335 688.128L629.395 689.899C629.626 696.121 630.091 702.584 631.681 708.49L632.125 708.885C634.806 711.22 637.784 712.927 641.06 714.005C641.831 712.056 641.219 709.778 639.864 708.269C639.783 705.639 639.589 703.003 639.344 700.367C643.455 702.607 648.035 704.088 651.304 704.758C660.844 706.727 670.705 705.998 680.004 703.187C720.174 691.048 742.285 649.668 745.445 610.117C746.487 597.124 745.789 584.109 744.03 571.202C743.47 555.908 740.522 540.887 737.365 525.927L736.096 519.945L735.148 515.461C730.718 494.357 728.005 473.023 725.481 451.623C725.268 449.819 724.298 448.527 723.04 447.747C723.487 446.802 723.831 445.746 724.045 444.548C724.628 441.298 724.348 438.129 724.077 435.053C723.586 429.478 723.121 424.209 727.865 419.318C728.049 419.128 728.234 418.939 728.418 418.75C733.956 413.06 739.111 407.764 735.705 399.197C734.561 396.316 732.666 393.654 730.768 390.988C727.541 386.456 724.306 381.912 724.735 376.258C724.785 375.548 723.924 375.187 723.384 375.477C723.254 375.548 723.155 375.658 723.075 375.807C720.043 381.757 723.516 387.286 726.907 392.685C730.384 398.22 733.776 403.619 729.985 409.197C726.045 414.988 719.474 417.617 717.955 425.088C717.469 427.488 717.782 430.496 718.105 433.59C718.645 438.771 719.209 444.192 716.085 447.398C714.924 448.578 707.504 452.517 706.445 453.428C704.085 455.428 702.155 457.888 700.445 460.447C697.094 465.468 694.804 471.107 691.625 476.227C691.415 476.568 691.195 476.908 690.974 477.248C686.934 483.428 681.424 486.767 673.844 485.447C665.365 483.977 658.434 477.777 650.865 474.057C641.865 469.638 632.065 469.807 622.445 467.848C622.035 467.767 621.625 467.678 621.214 467.588C616.835 466.588 612.264 464.988 609.094 461.727C605.764 458.307 603.835 452.517 606.415 448.197C609.209 449.494 612.427 449.857 615.578 450.026L616.626 450.076L622.538 450.31C629.226 450.556 635.92 450.692 642.615 450.718C650.415 450.738 658.224 450.617 666.024 450.338L666.859 450.31C674.122 450.083 682.005 450.239 689.035 448.458C691.695 447.787 690.875 444.187 688.424 443.947C684.295 443.55 679.951 443.886 675.694 444.216C674.076 444.341 672.471 444.466 670.895 444.548C665.045 444.848 659.195 445.057 653.344 445.187C641.634 445.437 629.924 445.357 618.224 444.918C615.304 444.807 609.304 444.388 606.485 442.158C604.884 440.888 604.315 439.017 605.934 436.287C608.375 432.178 615.445 430.787 619.585 429.388L620.986 428.921C627.996 426.601 635.066 424.546 642.274 423.168L644.301 423.164C662.806 423.057 681.039 420.759 699.075 416.568C701.915 415.908 700.695 411.678 697.875 412.227C682.585 415.218 667.004 416.918 651.434 417.468C644.004 417.727 636.575 417.678 629.155 417.318L628.875 417.306C628.405 417.288 627.905 417.277 627.383 417.267C624.014 417.198 619.792 417.112 617.625 414.658C615.285 412.027 616.014 407.777 617.674 405.027C620.847 399.754 627.992 396.952 633.514 394.559L634.274 394.227L636.115 393.435C642.2 390.855 648.474 388.644 654.825 386.787C663.514 384.258 672.405 382.598 681.354 381.357C687.134 380.548 692.934 379.908 698.735 379.318C699.524 379.238 699.514 378.187 698.735 378.098C696.325 377.798 693.905 377.598 691.485 377.488C694.295 376.418 697.085 375.328 699.865 374.227C702.774 373.078 706.174 372.238 708.634 370.388C709.575 370.367 710.514 370.318 711.434 370.218C715.195 369.818 716.665 364.138 712.395 363.128C710.905 362.777 709.384 362.527 707.844 362.348C703.545 361.838 699.104 361.838 694.854 361.548L694.197 361.508C692.855 361.435 691.456 361.406 690.036 361.377C686.083 361.294 681.958 361.209 678.405 360.158C672.086 358.278 676.904 351.756 680.255 348.853L680.62 348.545L680.974 348.267C684.795 345.378 689.585 343.767 694.315 343.227C699.72 342.616 705.183 343.171 710.538 344.026L712.653 344.375C717.776 345.214 723.481 345.843 728.094 348.298C733.604 351.227 736.145 356.568 732.934 362.338C730.569 366.589 726.133 369.248 721.859 371.604L720.217 372.503L719.014 373.168C718.295 373.568 718.795 374.607 719.554 374.447C720.684 374.218 721.815 373.958 722.934 373.678C728.604 372.238 734.035 369.958 737.754 365.158C742.134 359.508 742.045 352.298 737.684 346.687C733.639 341.501 727.545 339.473 721.369 338.08L720.507 337.89L718.785 337.527C715.82 336.926 712.822 336.33 709.805 335.845C711.067 334.744 711.88 333.085 711.585 331.043C709.329 315.455 706.686 299.932 703.703 284.474C703.928 280.038 702.883 275.216 701.923 270.78C701.657 269.554 701.398 268.358 701.174 267.208L700.833 265.482C699.558 259.157 698.019 252.884 696.205 246.687C695.518 244.349 694.779 242.025 694.016 239.71C692.949 235.278 684.36 215.561 681.078 208.817L680.701 208.053L680.375 207.418C666.905 181.838 647.474 160.098 624.495 142.658C620.551 139.662 616.537 136.783 612.468 133.99C614.366 132.76 615.53 130.229 614.92 127.999C614.143 125.158 613.862 123.947 614.434 120.996C615.072 117.716 615.627 114.572 615.284 111.209C614.641 104.891 611.6 98.7693 606.701 94.6743C601.896 90.6573 595.7 89.2543 590.702 85.6293C587.471 83.2863 586.17 79.5923 584.132 76.3223C582.434 73.5973 580.406 71.1253 577.958 69.0373C568.043 60.5853 553.404 56.4253 540.753 54.5453C530.973 53.0923 520.831 53.6723 512.249 58.1863C511.433 53.5603 510.879 48.8923 510.701 44.1973C510.634 42.4308 510.723 40.6017 510.812 38.7601ZM311.752 142.813C306.286 137.205 300.996 130.648 294.537 126.165C294.079 125.848 293.625 126.449 293.832 126.871C297.518 134.375 303.681 140.999 308.718 147.645L311.115 150.79C315.12 156.021 319.184 161.202 323.278 166.367C332.027 177.404 341 188.248 350.779 198.396C369.66 217.991 391.065 235.312 416.904 244.68C423.031 246.9 425.709 237.09 419.596 234.916C394.334 225.932 373.627 208.342 355.323 189.227C346.138 179.635 337.245 169.766 328.188 160.056C322.768 154.246 317.297 148.503 311.752 142.813ZM185.328 183.25C190.167 190.341 193.188 199.767 196.168 207.871L196.466 208.676C199.634 217.192 202.69 225.775 205.54 234.404C211.229 251.629 218.643 269.654 220.013 287.85C220.266 291.208 215.127 292.555 213.637 289.578C209.356 281.021 207.054 272.102 204.521 262.927C202.105 254.178 199.588 245.46 197.07 236.74C194.553 228.024 192.118 219.283 189.639 210.557C187.228 202.068 183.871 192.629 183.319 183.794C183.247 182.646 184.772 182.434 185.328 183.25ZM156.924 250.436C166.42 269.622 173.564 290.022 178.954 310.719C181.557 320.714 183.765 330.807 185.541 340.981L186.124 344.379L186.455 346.223C186.565 346.821 186.676 347.422 186.788 348.027C188.372 356.583 190.06 365.699 187.784 373.964C186.989 376.855 182.189 377.999 180.845 374.872C176.791 365.432 177.361 354.581 176.186 344.479C174.951 333.879 173.266 323.329 171.166 312.866C167.133 292.761 161.471 273.128 155.16 253.641L154.456 251.477C153.92 250.034 156.254 249.083 156.924 250.436ZM603.846 330.224C603.309 328.271 604.514 325.695 606.639 325.305C610.417 324.609 614.332 324.533 617.982 325.881C620.017 326.631 621.39 328.567 620.776 330.801C620.239 332.758 617.882 334.343 615.856 333.595C613.553 332.746 611.184 332.574 608.766 333.019L608.56 333.053C606.495 333.349 604.44 332.387 603.846 330.224ZM632.658 326.658C632.233 326.796 631.857 327.02 631.53 327.325L631.371 327.485C630.981 327.848 630.705 328.277 630.544 328.772C630.294 329.25 630.178 329.764 630.199 330.314L630.342 331.377C630.532 332.055 630.875 332.642 631.371 333.142L632.18 333.767C632.726 334.084 633.31 334.263 633.931 334.305L634.199 334.314L635.009 334.315C635.472 334.299 635.907 334.184 636.316 333.969C636.741 333.831 637.117 333.609 637.444 333.302L637.603 333.142C637.994 332.779 638.269 332.35 638.43 331.855C638.645 331.446 638.76 331.01 638.775 330.548L638.775 330.314L638.632 329.25C638.466 328.657 638.182 328.133 637.782 327.677L637.603 327.485L636.794 326.859C636.248 326.543 635.664 326.365 635.043 326.323L634.775 326.314L634.199 326.314C633.648 326.293 633.134 326.408 632.658 326.658ZM513.764 340.037C516.264 338.818 519.094 337.598 521.924 336.267C521.745 337.148 521.655 338.057 521.684 338.977C518.844 339.398 516.004 339.848 513.174 340.328C513.375 340.227 513.575 340.138 513.764 340.037ZM597.857 390.621L598.115 389.318C601.974 389.378 605.844 389.738 609.705 390.388C615.655 391.388 619.174 392.398 624.024 393.218C623.735 393.357 623.434 393.517 623.145 393.678L622.473 394.051C617.111 397.08 612.109 401.354 610.995 407.727C609.026 419.002 618.138 422.162 627.795 422.979L628.387 423.026L629.304 423.088C623.524 424.197 617.825 425.678 612.245 427.447C611.575 427.658 610.884 427.918 610.184 428.208C610.134 427.867 610.014 427.517 609.825 427.168C607.995 423.878 605.125 421.357 603.145 418.148C601.054 414.738 599.585 411.017 598.535 407.168C597.464 403.277 597.004 399.248 597.205 395.218C597.275 393.678 597.557 392.144 597.857 390.621ZM199.826 404.401C199.902 409.235 198.506 414.312 197.16 419.21C196.638 421.109 196.123 422.981 195.704 424.802C194.09 431.825 192.48 438.848 190.848 445.868L189.381 452.157C188.158 457.398 186.953 462.643 185.873 467.917C184.985 472.252 184.613 477.965 183.158 482.744C200.465 475.744 217.799 468.815 235.104 461.838C256.424 453.239 277.844 444.878 299.214 436.418C320.504 427.998 341.674 418.418 363.395 411.218C368.565 409.498 372.065 417.748 367.114 420.037C345.054 430.268 321.714 438.278 299.114 447.239L266.423 460.217C236.454 472.108 206.464 483.942 176.324 495.368C155.794 503.149 135.344 511.159 114.684 518.548C104.834 522.069 94.8954 525.399 85.0944 529.048C76.8844 532.108 68.0044 536.649 64.9644 545.468C64.8044 545.928 64.1744 545.739 64.2444 545.268C65.4744 536.728 71.8154 531.388 78.9644 527.348C88.4531 521.972 98.875 518.06 108.891 513.749L110.254 513.159C130.707 504.239 151.325 495.68 172.004 487.264C171.799 486.764 171.678 486.228 171.669 485.668L171.61 485.684C171.307 482.6 172.389 479.786 173.481 476.946C173.742 476.266 174.005 475.584 174.248 474.896L177.865 464.692C180.275 457.897 182.437 451.018 184.664 444.162C186.993 436.996 189.344 429.837 191.691 422.677C193.679 416.612 195.015 409.383 198.416 403.962C198.826 403.309 199.956 403.676 199.826 404.401ZM715.031 454.729L715.067 454.722C716.289 454.912 719.253 498.99 723.985 519.048L724.346 520.585C729.969 544.662 734.008 568.508 734.174 593.447C734.315 615.607 729.875 637.758 717.774 656.578C707.695 672.267 692.395 685.107 673.995 689.468C665.905 691.378 656.724 691.428 649.125 687.648C645.524 685.857 642.835 681.838 638.895 680.918C638.514 680.828 638.134 680.767 637.754 680.738C637.616 672.938 637.85 665.132 638.134 657.334L638.489 647.756C639.2 628.116 639.682 608.544 638.724 588.898C637.735 568.607 635.785 548.328 632.985 528.208C631.545 517.828 630.045 507.418 628.205 497.098C626.884 489.738 625.854 481.758 623.634 474.408C624.325 474.517 625.014 474.607 625.695 474.697C631.384 475.408 637.174 475.408 642.774 476.807C647.707 478.037 651.948 480.441 656.227 483.044L657.767 483.987C658.275 484.301 658.788 484.62 659.305 484.942C665.735 488.947 672.821 493.36 680.585 492.187C684.504 491.598 687.615 490.068 690.205 487.937C690.264 492.727 690.674 497.548 691.674 502.238C693.246 509.597 695.945 516.525 698.903 523.389L699.754 525.349L700.615 527.307C704.155 535.328 708.094 543.178 710.825 551.537L710.828 551.547C711.219 551.634 711.592 551.72 711.948 551.802C715.939 552.722 717.841 553.161 720.217 548.711C720.42 548.33 720.659 548.023 720.918 547.764C718.532 541.009 715.465 534.474 712.335 528.057C708.445 520.078 704.235 512.238 700.875 504.008C698.964 499.348 697.315 494.498 696.054 489.607C695.504 487.477 695.224 485.187 694.825 482.937C699.705 476.227 704.663 460.873 715.031 454.729Z" transform="translate(29.99361 -11.99969)" fill="#000000" fill-rule="evenodd" stroke="none"></path></g><g transform="translate(225 0)"><g><g><path d="M364.424 212.603C358.153 167.36 343.81 123.432 341.751 77.5101C340.526 57.8591 339.301 38.2071 338.077 18.5541C337.612 6.28011 321.668 2.13911 315.578 13.0131C301.735 -2.33889 276.947 -0.0778906 258.036 0.388109C146.708 4.33311 40.9142 79.6031 2.69821 184.552C1.77921 187.054 2.05721 189.717 3.09621 192.1C-14.7168 251.5 48.2782 289.749 91.2422 316.233C108.671 334.651 129.158 349.953 152.291 360.433C178.902 372.952 208.524 379.932 237.925 380.6C244.379 380.748 248.256 375.53 248.722 370.129C258.102 367.946 274.153 370.466 279.113 360.854C335.68 336.285 372.537 274.013 364.424 212.603L364.424 212.603Z" transform="translate(54 125.0003)" fill="#FFFFFF" stroke="none"></path><path d="M187.799 3.91891L188.851 3.75731C230.651 -2.60369 274.631 -2.15269 313.921 15.0973C321.451 18.4063 328.821 22.3963 335.761 27.0263C340.732 26.5073 345.732 26.0863 350.642 26.0173C356.821 25.9363 362.851 29.1463 363.611 35.3963C369.401 36.1163 374.732 38.2463 378.142 42.5073C379.471 44.1663 380.361 46.0863 380.812 48.0863C384.371 48.9273 387.861 50.2163 391.171 51.9163C395.191 53.9863 397.511 59.7463 396.091 64.0073C395.763 64.9745 395.391 65.9167 394.973 66.8386L394.651 67.5263L394.841 67.7863C398.051 72.9463 395.821 79.7163 390.901 82.7963C387.211 85.1063 383.091 86.9463 378.851 87.8363C379.201 89.5363 379.521 91.2463 379.781 92.9763C379.881 93.6773 378.982 94.1773 378.581 93.4863C378.581 93.4863 380.101 98.2163 382.392 103.427C383.291 105.476 380.411 107.296 379.312 105.226C376.392 99.7063 374.581 94.0463 371.931 88.3563C369.482 88.1963 367.041 87.6363 364.691 86.5663C363.151 85.8663 361.982 84.6863 361.142 83.2763C361.091 83.3363 361.062 83.4063 361.011 83.4763C353.121 93.6263 337.701 97.1863 325.781 100.396C312.982 103.847 299.881 105.976 286.732 107.546C263.771 110.276 240.631 110.786 217.562 111.847C216.034 111.916 214.509 111.993 212.983 112.067C203.613 120.287 191.544 125.395 179.164 126.948C172.891 127.734 165.471 127.534 158.437 125.932C155.891 128.532 152.674 130.458 149.162 131.447C148.53 144.546 141.226 156.948 130.184 164.177L130.38 164.956C133.124 176.141 133.089 188.368 123.252 196.142C121.919 197.194 120.464 198.096 118.934 198.844L119.271 199.617C124.351 211.491 125.974 224.607 116.423 234.46C112.551 238.454 105.752 237.508 102.848 232.925L102.706 232.692C102.545 232.419 102.371 232.157 102.204 231.889C101.945 232.419 101.549 232.866 100.961 233.116C97.7343 234.504 96.2301 233.748 93.6103 232.432C93.2832 232.268 92.9387 232.095 92.5713 231.916C89.5113 230.416 86.2813 229.296 82.9823 228.427C80.2913 227.726 77.6113 227.226 74.9113 226.936C57.8513 233.456 46.8313 253.456 49.4513 272.226C50.8713 282.446 56.4823 292.566 66.2613 296.806C70.5413 298.666 75.5713 299.446 80.2013 298.816C82.3721 298.522 84.3691 297.856 86.3218 297.205C90.0092 295.976 93.5384 294.799 97.7813 296.276C100.341 297.166 101.942 299.177 102.081 301.927C102.312 306.246 100.781 309.486 98.2013 311.886C102.751 315.686 106.421 320.966 110.371 325.177C115.312 330.446 120.321 335.716 125.661 340.576C130.701 345.186 136.062 349.466 141.741 353.267L142.338 353.66C149.454 358.294 158.421 362.409 158.761 372.097C158.871 375.017 157.101 377.696 154.701 379.186C145.732 384.746 135.971 377.446 128.941 372.097C126.111 369.946 123.361 367.716 120.711 365.406C118.941 365.546 117.011 365.257 115.001 364.366C113.711 363.806 112.451 363.146 111.211 362.446C107.181 363.456 103.381 362.566 100.251 360.456C95.7413 361.566 90.9613 361.696 86.9013 360.806C83.1923 359.986 79.8813 358.236 77.1513 355.886C71.4513 357.706 65.1213 357.366 59.5013 353.916C56.1313 351.847 53.5013 348.896 52.0713 345.446C51.3433 344.307 50.8775 342.977 50.8422 341.512L50.8413 340.956C45.9413 341.066 41.0313 339.386 37.2413 335.507C33.7613 331.946 32.0623 327.507 31.8713 322.996C26.9413 321.597 22.4313 318.725 19.0013 314.296C13.3213 306.956 12.5623 297.886 15.4823 289.786C15.2913 289.356 15.1213 288.916 14.9713 288.476C10.4413 282.086 7.45132 274.376 7.69132 266.646C7.72132 265.446 7.88132 264.267 8.12132 263.097C3.66132 260.726 0.381323 256.566 0.0313228 251.276C-0.238677 247.126 1.25132 243.066 3.94132 239.996C2.63132 236.866 2.05132 233.466 2.45132 230.066C2.86132 226.576 4.09132 223.546 5.89232 221.017C5.85132 220.097 5.90132 219.166 6.05132 218.216C5.87132 217.286 5.72132 216.326 5.64232 215.347C4.79132 204.626 12.1913 195.246 21.2013 190.296C23.5713 188.996 26.1313 187.936 28.6913 187.036C30.5513 186.376 33.3513 186.156 34.9913 184.946C34.961 184.925 35.0713 184.748 35.2159 184.515C35.4052 184.212 35.6533 183.813 35.7213 183.546C35.8513 182.966 35.9913 182.396 36.0623 181.806C36.2666 179.923 36.2004 178 36.1349 176.093C36.1141 175.489 36.0934 174.886 36.0813 174.286C35.8613 162.986 36.2113 151.636 37.4013 140.396C39.6113 119.556 45.0623 99.1663 55.6813 80.9563C64.5913 65.6963 76.7913 52.8063 90.7813 42.1163C118.647 20.8335 153.421 9.26146 187.799 3.91891ZM382.351 108.83C381.915 107.642 379.797 107.687 379.957 109.154C381.752 125.599 383.207 141.952 385.634 158.328C388.118 175.088 390.181 191.919 391.806 208.784C392.076 211.585 392.35 214.394 392.626 217.208C395.536 246.966 398.512 277.393 396.607 307.167C394.734 336.429 382.006 361.8 360.293 381.403C341.614 398.267 317.701 409.468 293.087 414.324C279.551 416.994 265.321 417.462 251.627 415.693C245.055 414.843 238.508 413.306 232.178 411.335C228.873 410.305 225.648 409.089 222.429 407.827C218.301 406.209 214.485 405.506 210.101 404.945C201.826 403.884 199.09 415.122 203.77 420.228C212.67 429.937 228.246 433.802 241.117 436.136L242.855 436.446C256.804 438.883 270.889 439.421 284.953 437.714C313.917 434.201 340.76 423.332 363.616 405.142C386.973 386.554 405.841 360.199 411.786 330.62C413.317 323.002 414.131 315.317 414.468 307.606C415.809 306.789 416.939 305.679 417.693 304.298C421.015 300.193 423.297 295.649 424.818 290.763C429.193 286.795 428.061 280.877 430.089 275.621C432.798 268.597 434.781 262.15 431.074 254.951C430.892 254.599 430.699 254.267 430.504 253.937C433.065 248.404 433.985 242.316 431.13 236.516C430.046 234.314 428.553 232.396 426.796 230.841C427.618 228.539 428.303 226.189 428.863 223.827C429.561 220.883 428.447 217.088 425.537 215.653C419.336 212.593 412.751 212.951 407.716 216.883C405.36 200.4 402.512 183.97 399.2 167.66C397.203 157.832 395.231 147.962 392.493 138.311C389.653 128.297 385.936 118.597 382.351 108.83ZM76.6251 254.697C72.1099 254.283 55.0327 254.369 58.66 263.087C58.885 263.629 59.78 263.628 59.765 262.938C59.6297 256.703 76.3322 263.676 80.2465 265.452L80.832 265.724C81.16 265.88 81.479 266.056 81.803 266.218C81.396 267.128 81.116 268.082 80.955 269.125C80.413 272.66 81.109 276.076 82.847 279.189C86.111 285.04 94.906 278.097 89.988 273.679L89.7421 273.447C88.6987 272.415 87.9469 271.033 87.477 269.537C88.369 270.144 89.245 270.773 90.085 271.447C93.288 274.014 95.526 276.948 99.517 278.314C103.594 279.71 108.689 275.109 106.968 270.864C102.81 260.609 86.921 255.721 76.758 254.71L76.6251 254.697Z" transform="translate(11.99988 68.00089)" fill="#000000" fill-rule="evenodd" stroke="none"></path></g></g><g transform="translate(159 186)"><g><path d="M180.496 13.8803C189.418 13.6703 189.43 -0.31169 180.496 0.00530964C150.356 1.07531 120.181 1.93131 90.0639 3.54831C60.57 5.13131 30.942 6.34931 1.67095 10.5153C-0.320048 10.3803 -0.763048 13.7263 1.61995 13.9263C27.6858 16.1206 53.9071 15.9328 80.0604 15.7455C81.9205 15.7322 83.7802 15.7189 85.6395 15.7064L91.058 15.6733C120.869 15.5133 150.694 14.5813 180.496 13.8803ZM169.22 32.8356L169.147 32.6666C164.161 21.3256 181.947 16.4516 183.455 26.6346L183.551 27.3217C185.018 38.6259 181.927 53.8276 168.081 54.9546C152.539 56.2206 146.067 38.8796 147.455 26.1546C147.704 23.8766 150.468 23.5616 151.322 25.6316L151.504 26.0834C151.922 27.1473 152.335 28.3746 152.776 29.6814C154.985 36.2299 157.867 44.7752 165.238 44.7646C171.146 44.7557 170.864 36.7814 169.22 32.8356ZM38.116 27.8428C37.712 26.7388 36.099 22.6898 34.136 23.5548C28.557 26.0158 30.076 36.6038 31.578 41.1868L31.7067 41.5686C34.2158 48.8026 40.3231 54.8858 47.91 56.5398C62.828 59.7908 79.0239 41.2588 68.556 27.9328C63.922 22.0348 56.215 27.6838 55.513 33.3358C55.3959 34.2764 55.4306 35.1938 55.4644 36.0862C55.5429 38.1587 55.6163 40.0964 53.771 41.8768C50.988 44.5618 47.144 42.6168 44.745 40.3218C41.879 37.5808 40.3144 33.8262 38.9515 30.1332L38.116 27.8428ZM148.634 93.3945C145.935 96.1939 142.37 98.1057 138.368 99.2956C128.309 102.286 115.475 100.693 107.26 97.6457C105.556 97.0135 103.963 95.725 103.048 94.1136C102.212 92.6417 101.929 90.9107 102.565 89.1453C102.747 88.6438 102.967 88.1514 103.188 87.6666C103.791 86.3475 105.019 85.3213 106.462 84.7344C107.96 84.1249 109.664 84.0005 111.03 84.4302C111.214 84.4879 111.402 84.5472 111.595 84.608L111.739 84.6536C116.957 86.2986 125.402 88.9611 132.41 88.4393C136.654 88.1233 140.387 86.6239 142.317 82.7401C143.335 80.6923 143.053 78.667 142.151 76.8126C140.79 74.0168 138.064 71.584 135.768 69.9077C132.531 67.544 129.079 66.6004 125.508 65.6041C124.163 65.2287 122.8 64.8481 121.424 64.3927C120.971 64.2431 120.574 63.9491 120.276 63.5669C119.982 63.1895 119.79 62.7285 119.729 62.2661C119.667 61.7872 119.744 61.3096 119.966 60.898C120.172 60.5162 120.501 60.1808 120.993 59.9605C127.979 56.8306 137.015 58.8988 143.835 63.8228C147.243 66.2838 150.086 69.4452 151.838 72.9778C153.464 76.2562 154.155 79.8531 153.518 83.5213C152.805 87.6278 151.067 90.8714 148.634 93.3945ZM139.935 144.805L139.244 144.965C134.181 146.112 129.095 147.234 124.103 148.659C123.848 148.732 123.364 148.847 122.717 149.001C118.144 150.092 105.396 153.132 107.392 156.879C108.698 159.333 111.195 160 113.73 160.513L116.211 160.999C120.407 161.792 124.679 162.396 128.924 162.774C133.477 163.179 138.124 163.247 142.695 163.184L143.039 163.18C143.377 163.176 143.714 163.173 144.049 163.171C149.179 163.131 154 163.093 157.686 158.847C161.506 154.447 160.825 148.415 155.922 145.154C151.248 142.045 146.433 143.221 141.449 144.439C140.946 144.562 140.442 144.686 139.935 144.805Z" transform="translate(43.00025 81.00009)" fill="#000000" fill-rule="evenodd" stroke="none"></path></g></g><g transform="translate(123 338)"><g><path d="M139.816 13.717C129.739 8.099 118.659 0.831 106.945 0C99.8638 0.301 98.2868 8.676 103.541 12.571C112.734 17.702 123.938 19.63 133.062 25.271C142.406 30.48 152.448 34.35 161.965 39.125L162.042 39.1614C162.534 39.3518 163.134 38.7908 162.798 38.292L162.426 37.6664C156.692 28.0954 149.514 19.511 139.816 13.717ZM72.3164 13.8353C75.8244 12.5963 76.9034 8.3553 76.4764 5.6833C75.8314 1.6513 68.4234 -0.1757 64.9494 0.5823C46.0404 4.7043 -8.72363 30.5783 1.18937 36.7803L1.61737 36.9683C15.2644 30.1282 30.9104 25.4671 46.3249 21.1251L54.3496 18.8776C60.5403 17.1815 66.1532 16.0094 72.3164 13.8353Z" transform="translate(123 33.9998)" fill="#000000" fill-rule="evenodd" stroke="none"></path></g></g><g transform="translate(47 241)"><g><path d="M409.463 3.8448C410.287 3.9658 411.111 4.0948 411.934 4.2318C418.27 5.2808 419.246 15.2398 413.729 17.9668C409.483 20.0668 406.817 24.2488 407.954 29.0788C408.779 32.5828 407.27 35.3698 404.887 36.8078C404.153 59.4058 400.438 84.7238 382.858 101.261C342.399 128.036 302.322 95.3878 310.705 43.7638C310.105 43.3428 309.577 42.8078 309.189 42.1368C308.911 41.6868 308.672 41.2368 308.449 40.7878C307.565 40.0648 301.03 37.7038 292.541 38.8798C284.052 40.0568 281.355 44.0148 277.062 48.3008C276.399 49.5928 275.264 50.5688 273.479 50.9698C270.103 69.9788 266.632 91.0678 252.071 105.304C215.602 139.383 152.661 111.085 154.989 59.2428C142.316 57.0798 152.882 42.2078 132.833 38.8798C129.215 37.6678 125.792 35.3518 123.536 32.6958C93.5503 29.4738 64.0323 30.9178 35.0393 41.3338C33.2654 42.076 31.4106 42.7524 29.5642 43.4257C19.2827 47.175 9.2641 50.8284 14.9483 65.2098C14.7313 69.9788 8.89832 72.8158 5.46132 69.2928L5.45832 69.2958C5.45332 69.2898 5.45032 69.2828 5.44632 69.2768C-14.0668 34.2407 22.9785 28.378 51.445 23.8729C52.0721 23.7736 52.6952 23.675 53.3133 23.5768C68.6263 20.2758 84.2953 18.8808 99.9463 19.2088C101.76 19.2865 103.703 19.3157 105.697 19.3457C111.762 19.4369 118.302 19.5352 123.121 21.0268C123.147 21.0348 123.172 21.0408 123.197 21.0478C129.862 0.847801 268.445 -3.8812 276.461 29.6238C280.189 29.5282 283.582 29.8068 286.814 30.0721C292.712 30.5563 298.071 30.9962 303.94 29.0368C306.664 4.6888 372.671 -4.4282 401.203 1.9928C403.191 2.1778 405.182 2.5208 407.187 3.0298C408.065 3.1988 408.82 3.4798 409.463 3.8448ZM349.405 100.25C360.918 101.245 373.4 98.3638 380.133 89.3188C391.579 73.6748 394.672 53.4838 394.854 34.9018C391.884 31.9349 390.53 28.6015 389.288 25.5433C386.823 19.475 384.798 14.4901 371.456 15.6018C335.435 17.9104 329.443 32.0442 325.678 40.9243C323.493 46.076 322.059 49.4595 315.945 47.7398C316.759 69.6588 324.574 97.8598 349.405 100.25ZM261.862 67.9668C247.202 136.62 166.924 120.29 158.491 58.4038C166.278 52.9078 164.227 39.3368 173.901 34.4198C188.988 24.7808 207.786 25.032 224.972 25.2616C225.252 25.2654 225.531 25.2691 225.81 25.2728C248.065 26.8018 254.407 36.0208 265.839 46.0788C265.289 52.7968 263.703 60.7588 261.862 67.9668Z" transform="translate(-12.99972 8.999499)" fill="#000000" fill-rule="evenodd" stroke="none"></path></g></g></g></g></svg>